<?xml version="1.0" encoding="UTF-8"?>
<!-- Created with Inkscape (http://www.inkscape.org/) -->
<svg id="svg8" width="181.37" height="64.036" version="1.1" viewBox="0 0 47.987 16.943" xmlns="http://www.w3.org/2000/svg" xmlns:cc="http://creativecommons.org/ns#" xmlns:dc="http://purl.org/dc/elements/1.1/" xmlns:rdf="http://www.w3.org/1999/02/22-rdf-syntax-ns#" xmlns:xlink="http://www.w3.org/1999/xlink">
 <defs id="defs2">
  <linearGradient id="linearGradient4556">
   <stop id="stop4550" stop-color="#202020" offset="0"/>
   <stop id="stop4552" stop-color="#909090" offset=".5"/>
   <stop id="stop4554" stop-color="#202020" offset="1"/>
  </linearGradient>
  <linearGradient id="linearGradient895" x1="64.744" x2="66.332" y1="44.967" y2="44.967" gradientTransform="translate(-.10583 -.026458)" gradientUnits="userSpaceOnUse" xlink:href="#linearGradient4556"/>
  <linearGradient id="linearGradient905" x1="58.394" x2="59.982" y1="45.035" y2="45.035" gradientTransform="translate(-.052917 -.026455)" gradientUnits="userSpaceOnUse" xlink:href="#linearGradient4556"/>
  <linearGradient id="linearGradient913" x1="52.044" x2="53.632" y1="45.035" y2="45.035" gradientTransform="translate(0 -.026458)" gradientUnits="userSpaceOnUse" xlink:href="#linearGradient4556"/>
  <linearGradient id="linearGradient921" x1="63.432" x2="64.405" y1="41.524" y2="40.502" gradientTransform="translate(-.10581)" gradientUnits="userSpaceOnUse" xlink:href="#linearGradient4556"/>
  <linearGradient id="linearGradient929" x1="57.158" x2="58.115" y1="41.621" y2="40.533" gradientTransform="translate(-.052917)" gradientUnits="userSpaceOnUse" xlink:href="#linearGradient4556"/>
  <linearGradient id="linearGradient937" x1="60.285" x2="61.267" y1="40.482" y2="41.559" gradientTransform="translate(-.079375)" gradientUnits="userSpaceOnUse" xlink:href="#linearGradient4556"/>
  <linearGradient id="linearGradient945" x1="53.843" x2="54.787" y1="40.58" y2="41.674" gradientTransform="translate(-.026459)" gradientUnits="userSpaceOnUse" xlink:href="#linearGradient4556"/>
  <linearGradient id="linearGradient953" x1="51.402" x2="52.363" y1="42.218" y2="41.091" gradientUnits="userSpaceOnUse" xlink:href="#linearGradient4556"/>
  <linearGradient id="linearGradient961" x1="50.141" x2="51.222" y1="40.964" y2="39.949" gradientTransform="translate(.012892 .013183)" gradientUnits="userSpaceOnUse">
   <stop id="stop963" stop-color="#c00000" offset="0"/>
   <stop id="stop965" stop-color="#ff6969" offset=".5"/>
   <stop id="stop967" stop-color="#c00000" offset="1"/>
  </linearGradient>
 </defs>
 <metadata id="metadata5">
  <rdf:RDF>
   <cc:Work rdf:about="">
    <dc:format>image/svg+xml</dc:format>
    <dc:type rdf:resource="http://purl.org/dc/dcmitype/StillImage"/>
    <dc:title/>
   </cc:Work>
  </rdf:RDF>
 </metadata>
 <g id="layer1" transform="translate(-36.963 -47.901)">
  <path id="path1604" d="m70.409 47.901v0.39683l-0.79375 0.7937 0.79375 9.5e-5v3.3072l-0.79375 0.79375 0.79375 9.5e-5v4.7626l-0.79375 0.79352 0.79375 9.5e-5v2.3937h1.0454v-2.3937h0.79373l-0.79373-0.79362v-1.9137c0.30832-0.0066 0.66692 0.38635 1.019 0.32825 0.33562-0.05537 0.49344-0.5109 0.81934-0.60833 0.34161-0.10213 0.75447 0.23166 1.0679 0.06164 0.28138-0.15265 0.23229-0.62674 0.47634-0.8339 0.28378-0.24088 0.82944-0.08677 1.0468-0.38898 0.20335-0.28278-0.08172-0.71561 0.03329-1.0444 0.10843-0.30996 0.59629-0.46118 0.58926-0.78948-0.0079-0.37054-0.59733-0.5064-0.7026-0.86176-0.09168-0.30946 0.28678-0.69637 0.10436-0.96263-0.23599-0.34444-0.89816-0.04617-1.21-0.32378-0.2243-0.19966-0.07055-0.68987-0.33208-0.83742-0.34491-0.19459-0.78349 0.27431-1.1717 0.19622-0.34685-0.06977-0.5457-0.52998-0.89762-0.56644-0.29795-0.03087-0.56046 0.31033-0.84216 0.31357v-0.63256h0.79371l-0.79371-0.7938v-0.39683zm2.6819 2.8455c0.28838 0.03943 0.58621-0.31211 0.85166-0.19272 0.24543 0.11039 0.17554 0.54366 0.38914 0.70736 0.21285 0.16313 0.62426-0.02604 0.78148 0.19122 0.14542 0.20096-0.1468 0.51028-0.05803 0.7419 0.10012 0.26126 0.60499 0.29896 0.60794 0.57872 0.0031 0.28994-0.52789 0.33709-0.61726 0.61294-0.08075 0.24924 0.27666 0.56061 0.127 0.77566-0.18713 0.26891-0.70429-0.01071-0.96468 0.1881-0.21746 0.16604-0.11696 0.61773-0.36378 0.7358-0.27925 0.13358-0.60379-0.26708-0.90642-0.20199-0.28344 0.06097-0.40794 0.48938-0.69608 0.52151-0.28583 0.03187-0.56023-0.35769-0.78751-0.35253v-1.8598h0.79379l-0.79379-0.79385v-1.7212c0.22326-0.0068 0.50732-0.38787 0.8035-0.3801 0.31533 0.0083 0.5205 0.40625 0.83304 0.44899z" fill="#606060"/>
  <path id="path838" d="m49.888 62.142-2.7483-2.286c1.1684-1.2869 1.7441-2.8787 1.7441-4.826 0-3.8269-2.4045-6.4347-5.9605-6.4347s-5.9605 2.6077-5.9605 6.4685 2.4045 6.4685 5.9605 6.4685c1.2192 0 2.2352-0.27093 3.2343-0.8636l1.778 1.4732zm-4.2521-3.5221-1.9505 4e-6 1.2531 1.0499c-0.72813 0.33867-1.2869 0.47413-2.032 0.47413-2.6247 0-4.3688-2.032-4.3688-5.08s1.7611-5.08 4.3857-5.08c2.6247 0 4.3857 2.032 4.3857 5.0631 0 1.5917-0.42333 2.8279-1.3377 3.8608z" fill="#606060"/>
  <path id="path973" d="m50.98 58.073c0.10368 1.1138-0.52556 2.5743 0.08082 2.9975 0.60639 0.4232 1.4677-1.778 1.3826-2.9644-0.08505-1.1864-1.1459-3.3275-1.7406-3.0562-0.59471 0.27126 0.17356 1.9093 0.27723 3.0231z" fill="#b20e0e"/>
  <path id="path840" d="m51.966 51.199c-0.41885-0.30322-1.5293 5e-3 -1.8529 0.45004-0.32352 0.44507-0.17022 1.8352 0.24863 2.1384 0.41885 0.30323 0.5318-0.91858 0.85532-1.3637 0.32352-0.44507 1.1678-0.92161 0.7489-1.2248z" fill="#3f32ee"/>
  <g id="g861" transform="translate(2.3641,13.613)" fill-rule="evenodd">
   <path id="path836" d="m64.638 42.847v3.9688c0.02953 0.51972 0.41957 0.79375 0.79375 0.79375s0.79966-0.29765 0.79375-0.79375v-3.2411c0-0.6243 0.0053-0.90324-0.17765-1.3036" fill="url(#linearGradient895)"/>
   <path id="path824" d="m52.838 41.551-0.9616-0.96782-1.028 1.0949 1.1959 1.1959 0.79375-0.44106" fill="url(#linearGradient953)"/>
   <path id="path839" d="m58.341 42.847v3.9688c0.03341 0.40926 0.41957 0.79375 0.79375 0.79374 0.37418 0 0.8021-0.32603 0.79375-0.79375v-3.9687l-0.79375-0.44106" fill="url(#linearGradient905)"/>
   <path id="path843" d="m62.257 40.493 2.3813 2.3812 1.4099-0.576c-0.18297-0.40036-1.2453-1.3517-1.4603-1.5566-1.2785-1.2183-1.6387-1.8391-2.3308-1.8361" fill="url(#linearGradient921)"/>
   <path id="path845" d="m55.96 40.493 2.3812 2.3812 0.79375-0.44106v-0.88186c-1.9377-1.8041-2.4107-2.6792-3.175-2.6458" fill="url(#linearGradient929)"/>
   <path id="path847" d="m59.109 42.433 0.79375 0.44106 2.3812-2.3812 2e-5 -1.5875c-0.94299 0.0041-1.3375 0.80836-3.175 2.6458" fill="url(#linearGradient937)"/>
   <path id="path849" d="m52.838 42.406-0.79375 0.44106-2e-6 3.9687c0 0.45937 0.41957 0.79375 0.79375 0.79375s0.8021-0.31767 0.79375-0.79375v-3.9688" fill="url(#linearGradient913)"/>
   <path id="path851" d="m55.987 38.905c-0.76428 0.03341-1.3041 0.77495-3.175 2.6458v0.88186l0.79375 0.44106 2.3812-2.3812" fill="url(#linearGradient945)"/>
   <path id="path863" d="m51.889 40.596-1.2062-1.214c-0.33073-0.29529-0.89485-0.11989-1.0627 0.06737-0.16786 0.18725-0.25157 0.76085 0.05554 1.0561l1.1854 1.1854" fill="url(#linearGradient961)"/>
  </g>
  <path id="path1618" d="m78.279 54.126-1.2896 0.0031 0.31419 0.52917h1.2922zm5.3785 0-0.88407 1.492-1.1125 0.25419 0.70936 0.41694-1.4005 2.3602-5.16e-4 -1e-3 -0.14366 0.2434h-1.0064l0.31471 0.52917h0.37744l-1.4197 2.3847-1.0709 0.21342 0.69768 0.41259-1.4291 2.4122 1.3004-0.0067 1.0899-1.8371 0.66922 0.40476-0.29163-1.0415 3.2713-5.5045 0.66231 0.39757-0.25982-1.0821 1.2191-2.0451zm-6.1962 0.79685 0.31419 0.52917h1.2922l-0.31471-0.52917zm0.47129 0.79375 0.31471 0.52917h1.2927l-0.31471-0.52917zm0.4718 0.79375 0.31471 0.52917h1.2932l-0.31471-0.52917zm0.47181 0.79375 0.31419 0.52917h1.2942l-0.31471-0.52917zm0.4718 0.79375 0.31419 0.52917h1.2942l-0.31471-0.52917z" fill="#606060"/>
  <path id="path4558" d="m45.904 55.047c0-1.9134-1.2022-3.2174-2.9802-3.2174s-2.9802 1.3038-2.9802 3.2342 1.2022 3.2342 2.9802 3.2342c1.8347 0.0087 2.9833-1.3714 2.9802-3.2512zm-2.9886 2.8214c-1.4532 0-2.4196-1.0614-2.4491-2.8045-0.0292-1.7273 1.0359-2.8341 2.4575-2.8047 1.5159 0.03131 2.4574 1.1554 2.4574 2.7962 0.0042 1.7592-1.0034 2.7904-2.4658 2.8129z" fill="#606060" fill-opacity=".25098" stroke-width=".5"/>
  <path id="path4562" d="m44.115 55.057c0-0.76538-0.4809-1.2869-1.1921-1.2869s-1.1921 0.52154-1.1921 1.2937 0.4809 1.2937 1.1921 1.2937c0.73386 0.0035 1.1933-0.54857 1.1921-1.3005z" fill="#606060" fill-opacity=".50196" stroke-width=".2"/>
 </g>
</svg>
