<?xml version="1.0" encoding="UTF-8"?>
<!-- Created with Inkscape (http://www.inkscape.org/) -->
<svg id="svg8" width="182.24" height="64.033" version="1.1" viewBox="0 0 48.217 16.942" xmlns="http://www.w3.org/2000/svg" xmlns:cc="http://creativecommons.org/ns#" xmlns:dc="http://purl.org/dc/elements/1.1/" xmlns:rdf="http://www.w3.org/1999/02/22-rdf-syntax-ns#" xmlns:xlink="http://www.w3.org/1999/xlink">
 <defs id="defs2">
  <linearGradient id="linearGradient893">
   <stop id="stop889" offset="0"/>
   <stop id="stop897" stop-color="#616161" offset=".5"/>
   <stop id="stop891" offset="1"/>
  </linearGradient>
  <linearGradient id="linearGradient895" x1="64.744" x2="66.332" y1="44.967" y2="44.967" gradientTransform="translate(-.10583 -.026458)" gradientUnits="userSpaceOnUse" xlink:href="#linearGradient893"/>
  <linearGradient id="linearGradient905" x1="58.394" x2="59.982" y1="45.035" y2="45.035" gradientTransform="translate(-.052917 -.026455)" gradientUnits="userSpaceOnUse" xlink:href="#linearGradient893"/>
  <linearGradient id="linearGradient913" x1="52.044" x2="53.632" y1="45.035" y2="45.035" gradientTransform="translate(0 -.026458)" gradientUnits="userSpaceOnUse" xlink:href="#linearGradient893"/>
  <linearGradient id="linearGradient921" x1="63.432" x2="64.405" y1="41.524" y2="40.502" gradientTransform="translate(-.10581)" gradientUnits="userSpaceOnUse" xlink:href="#linearGradient893"/>
  <linearGradient id="linearGradient929" x1="57.158" x2="58.115" y1="41.621" y2="40.533" gradientTransform="translate(-.052917)" gradientUnits="userSpaceOnUse" xlink:href="#linearGradient893"/>
  <linearGradient id="linearGradient937" x1="60.285" x2="61.267" y1="40.482" y2="41.559" gradientTransform="translate(-.079375)" gradientUnits="userSpaceOnUse" xlink:href="#linearGradient893"/>
  <linearGradient id="linearGradient945" x1="53.843" x2="54.787" y1="40.58" y2="41.674" gradientTransform="translate(-.026459)" gradientUnits="userSpaceOnUse" xlink:href="#linearGradient893"/>
  <linearGradient id="linearGradient953" x1="51.402" x2="52.363" y1="42.218" y2="41.091" gradientUnits="userSpaceOnUse" xlink:href="#linearGradient893"/>
  <linearGradient id="linearGradient961" x1="50.141" x2="51.222" y1="40.964" y2="39.949" gradientTransform="translate(.012892 .013183)" gradientUnits="userSpaceOnUse">
   <stop id="stop963" stop-color="#c00000" offset="0"/>
   <stop id="stop965" stop-color="#ff6969" offset=".5"/>
   <stop id="stop967" stop-color="#c00000" offset="1"/>
  </linearGradient>
 </defs>
 <metadata id="metadata5">
  <rdf:RDF>
   <cc:Work rdf:about="">
    <dc:format>image/svg+xml</dc:format>
    <dc:type rdf:resource="http://purl.org/dc/dcmitype/StillImage"/>
    <dc:title/>
   </cc:Work>
  </rdf:RDF>
 </metadata>
 <g id="layer1" transform="translate(-36.963 -47.901)">
  <path id="path1604" d="m70.277 47.901v0.66146l-0.52917 0.52917h0.52917v3.5719l-0.52917 0.52917h0.52917v5.0271l-0.52917 0.52917h0.52917v2.3937h1.31v-2.3937h0.52917l-0.52917-0.52917v-2.0459c0.30832-0.0066 0.60453 0.23495 0.88677 0.19598 0.31652-0.0437 0.61614-0.37131 0.89762-0.45178 0.30797-0.08804 0.72652 0.03194 0.9896-0.09491 0.28887-0.13929 0.41771-0.52943 0.64855-0.70866 0.25188-0.19556 0.69686-0.28007 0.87455-0.51422 0.18972-0.24999 0.10658-0.65181 0.20549-0.93479 0.1005-0.28755 0.41705-0.58929 0.41705-0.89907 0-0.31051-0.31188-0.6101-0.40516-0.89307-0.09401-0.28519-0.0059-0.68589-0.19308-0.93132-0.17654-0.23145-0.6232-0.31014-0.88127-0.49599-0.23202-0.1671-0.36393-0.54261-0.66084-0.66522-0.26372-0.1089-0.68532 0.02983-0.99952-0.03861-0.27946-0.06087-0.57872-0.36916-0.89762-0.39424-0.30316-0.02626-0.60042 0.24062-0.88212 0.24386v-0.50023h0.52917l-0.52917-0.52917v-0.66146zm1.9616 2.5255c0.24728 0.01667 0.47938 0.31086 0.69608 0.35134 0.24364 0.04551 0.6002-0.12424 0.8047-0.05182 0.23024 0.08153 0.30316 0.40839 0.48307 0.5195 0.20012 0.12358 0.59761 0.13125 0.73451 0.28515 0.14516 0.16318 0.02561 0.47401 0.09852 0.66363 0.07233 0.18815 0.37312 0.38792 0.37312 0.59438 0 0.20598-0.30449 0.40608-0.38243 0.59728-0.0767 0.18816 0.0393 0.49985-0.10782 0.66607-0.13779 0.15569-0.53454 0.16767-0.72986 0.29769-0.179 0.11917-0.24936 0.45533-0.47337 0.54794-0.204 0.08435-0.55803-0.07266-0.79684-0.01413-0.21827 0.0535-0.45064 0.36019-0.69608 0.38925-0.2088 0.02472-0.42798-0.22543-0.65526-0.22027v-1.8598h0.52917l-0.52917-0.52917v-1.9859c0.22326-0.0068 0.44357-0.26106 0.65164-0.25109z"/>
  <path id="path838" d="m49.888 62.142-2.7483-2.286c1.1684-1.2869 1.7441-2.8787 1.7441-4.826 0-3.8269-2.4045-6.4347-5.9605-6.4347-3.556 0-5.9605 2.6077-5.9605 6.4685s2.4045 6.4685 5.9605 6.4685c1.2192 0 2.2352-0.27093 3.2343-0.8636l1.778 1.4732zm-4.2521-3.5221-1.9505 4e-6 1.2531 1.0499c-0.72813 0.33867-1.2869 0.47413-2.032 0.47413-2.6247 0-4.3688-2.032-4.3688-5.08s1.7611-5.08 4.3857-5.08c2.6247 0 4.3857 2.032 4.3857 5.0631 0 1.5917-0.42333 2.8279-1.3377 3.8608z"/>
  <path id="path973" d="m50.98 58.073c0.10368 1.1138-0.52556 2.5743 0.08082 2.9975 0.60639 0.4232 1.4677-1.778 1.3826-2.9644-0.08505-1.1864-1.1459-3.3275-1.7406-3.0562-0.59471 0.27126 0.17356 1.9093 0.27723 3.0231z" fill="#770a0a"/>
  <path id="path840" d="m51.966 51.199c-0.41885-0.30322-1.5293 5e-3 -1.8529 0.45004-0.32352 0.44507-0.17022 1.8352 0.24863 2.1384 0.41885 0.30323 0.5318-0.91858 0.85532-1.3637 0.32352-0.44507 1.1678-0.92161 0.7489-1.2248z" fill="#2012dc"/>
  <g id="g861" transform="translate(2.3641 13.613)" fill-rule="evenodd">
   <path id="path836" d="m64.638 42.847v3.9688c0.02953 0.51972 0.41957 0.79375 0.79375 0.79375 0.37418 0 0.79966-0.29765 0.79375-0.79375v-3.2411c0-0.6243 0.0053-0.90324-0.17765-1.3036" fill="url(#linearGradient895)"/>
   <path id="path824" d="m52.838 41.551-0.9616-0.96782-1.028 1.0949 1.1959 1.1959 0.79375-0.44106" fill="url(#linearGradient953)"/>
   <path id="path839" d="m58.341 42.847v3.9688c0.03341 0.40926 0.41957 0.79375 0.79375 0.79374 0.37418 0 0.8021-0.32603 0.79375-0.79375v-3.9687l-0.79375-0.44106" fill="url(#linearGradient905)"/>
   <path id="path843" d="m62.257 40.493 2.3813 2.3812 1.4099-0.576c-0.18297-0.40036-1.2453-1.3517-1.4603-1.5566-1.2785-1.2183-1.6387-1.8391-2.3308-1.8361" fill="url(#linearGradient921)"/>
   <path id="path845" d="m55.96 40.493 2.3812 2.3812 0.79375-0.44106v-0.88186c-1.9377-1.8041-2.4107-2.6792-3.175-2.6458" fill="url(#linearGradient929)"/>
   <path id="path847" d="m59.109 42.433 0.79375 0.44106 2.3812-2.3812 2e-5 -1.5875c-0.94299 0.0041-1.3375 0.80836-3.175 2.6458" fill="url(#linearGradient937)"/>
   <path id="path849" d="m52.838 42.406-0.79375 0.44106-2e-6 3.9687c0 0.45937 0.41957 0.79375 0.79375 0.79375 0.37418 0 0.8021-0.31767 0.79375-0.79375v-3.9688" fill="url(#linearGradient913)"/>
   <path id="path851" d="m55.987 38.905c-0.76428 0.03341-1.3041 0.77495-3.175 2.6458v0.88186l0.79375 0.44106 2.3812-2.3812" fill="url(#linearGradient945)"/>
   <path id="path863" d="m51.889 40.596-1.2062-1.214c-0.33073-0.29529-0.89485-0.11989-1.0627 0.06737-0.16786 0.18725-0.25157 0.76085 0.05554 1.0561l1.1854 1.1854" fill="url(#linearGradient961)"/>
  </g>
  <path id="path1618" d="m78.279 54.126-1.5188 0.0031 0.31419 0.52917h1.5214zm5.3785 0-0.95602 1.6082-0.72502 0.185 0.45475 0.27027-1.4614 2.4598-5.16e-4 -1e-3 -0.14366 0.2434h-1.2356l0.31471 0.52917h0.60668l-0.15761 0.26458h-0.29197l0.14625 0.24598-1.1555 1.9446-0.72502 0.18448 0.45475 0.27027-1.4929 2.513 1.5296-0.0067 1.0899-1.8371 0.45475 0.27027-0.18449-0.72502 3.3786-5.6865 0.45475 0.27027-0.18448-0.72554 1.3513-2.2743zm-6.4254 0.79685 0.31419 0.52917h1.5214l-0.31471-0.52917zm0.47129 0.79375 0.31471 0.52917h1.5219l-0.31471-0.52917zm0.4718 0.79375 0.31471 0.52917h1.5224l-0.31471-0.52917zm0.47181 0.79375 0.31419 0.52917h1.5234l-0.31471-0.52917zm0.4718 0.79375 0.31419 0.52917h1.5234l-0.31471-0.52917z"/>
  <ellipse id="path1644" cx="42.916" cy="55.045" rx=".52917" ry="2.6458" fill="#c0c0c0"/>
  <path id="ellipse1648" d="m40.932 55.045c0 1.4613 0.70296 3.175 0.26458 3.175s-1.3229-1.7137-1.3229-3.175 0.88454-3.175 1.3229-3.175-0.26458 1.7137-0.26458 3.175z" fill="#e0e0e0"/>
  <path id="path1651" d="m44.901 55.045c0 1.4613-0.70296 3.175-0.26458 3.175s1.3229-1.7137 1.3229-3.175-0.88454-3.175-1.3229-3.175 0.26458 1.7137 0.26458 3.175z" fill="#e0e0e0"/>
 </g>
</svg>
